<svg width="200" height="200" viewBox="0 0 200 200" fill="none" xmlns="http://www.w3.org/2000/svg">
<mask id="mask0_4207_16402" style="mask-type:alpha" maskUnits="userSpaceOnUse" x="0" y="0" width="200" height="200">
<rect width="200" height="200" fill="#D9D9D9"/>
</mask>
<g mask="url(#mask0_4207_16402)">
<path d="M65.0243 110.571C65.0243 110.571 77.6156 117.142 71.4598 135.428C59.4282 124.571 65.0243 110.571 65.0243 110.571Z" fill="#001011"/>
<path d="M82.9615 130.136C82.9615 130.136 87.6341 128.407 90.8061 134.419C85.1793 134.971 82.9615 130.136 82.9615 130.136Z" fill="#001011"/>
<path d="M76.2467 130.136C76.2467 130.136 80.9192 128.407 84.0912 134.419C78.4645 134.971 76.2467 130.136 76.2467 130.136Z" fill="#001011"/>
<path d="M88.2813 145.361C88.2813 145.361 92.7216 143.082 90.6224 136.598C86.3641 140.394 88.2813 145.361 88.2813 145.361Z" fill="#001011"/>
<path d="M83.668 145.361C83.668 145.361 88.1083 143.082 86.0091 136.598C81.7509 140.394 83.668 145.361 83.668 145.361Z" fill="#001011"/>
<path d="M78.8457 146.161C78.8457 146.161 83.2921 143.894 81.21 137.404C76.9417 141.189 78.8457 146.161 78.8457 146.161Z" fill="#001011"/>
<path d="M76.049 148.004C76.049 148.004 78.9176 145.169 75.7846 140.712C73.412 144.665 76.049 148.004 76.049 148.004Z" fill="#001011"/>
<path d="M74.673 152.38C74.673 152.38 76.7039 149.734 73.6537 146.453C72.1511 149.955 74.673 152.38 74.673 152.38Z" fill="#001011"/>
<path d="M74.9468 156.888C74.9468 156.888 75.4178 153.561 71.1727 152.267C71.5775 156.068 74.9468 156.888 74.9468 156.888Z" fill="#001011"/>
<path d="M67.2163 152.682C67.2163 152.682 70.4323 153.4 72.0002 149.17C68.2585 149.31 67.2163 152.682 67.2163 152.682Z" fill="#001011"/>
<path d="M76.4967 161.025C76.4967 161.025 75.7622 157.749 71.3457 158.103C73.0645 161.5 76.4967 161.025 76.4967 161.025Z" fill="#001011"/>
<path d="M67.8286 158.76C67.8286 158.76 71.0819 158.247 71.0517 153.723C67.6107 155.23 67.8286 158.76 67.8286 158.76Z" fill="#001011"/>
<path d="M76.7258 166.035C76.7258 166.035 76.1102 163.289 72.4089 163.586C73.8494 166.433 76.7258 166.035 76.7258 166.035Z" fill="#001011"/>
<path d="M78.0883 170.477C78.0883 170.477 78.0496 167.66 74.3693 167.159C75.194 170.251 78.0883 170.477 78.0883 170.477Z" fill="#001011"/>
<path d="M72.7328 169.136C72.7328 169.136 74.6238 167.085 72.3209 164.111C70.8074 166.918 72.7328 169.136 72.7328 169.136Z" fill="#001011"/>
<path d="M69.4609 164.137C69.4609 164.137 72.1874 163.707 72.1621 159.916C69.2783 161.179 69.4609 164.137 69.4609 164.137Z" fill="#001011"/>
<path d="M36.9452 107.999C36.9452 107.999 49.5365 114.571 43.3807 132.857C31.3491 121.999 36.9452 107.999 36.9452 107.999Z" fill="#001011"/>
<path d="M18.1086 134.241C18.1086 134.241 27.8726 123.797 43.2757 135.044C29.6493 143.716 18.1086 134.241 18.1086 134.241Z" fill="#001011"/>
<path d="M29.7414 98.8401C29.7414 98.8401 39.389 107.533 29.8627 121.95C21.668 109.669 29.7414 98.8401 29.7414 98.8401Z" fill="#001011"/>
<path d="M8.5812 123.603C8.5812 123.603 17.4331 114.527 30.8871 124.798C18.6422 132.228 8.5812 123.603 8.5812 123.603Z" fill="#001011"/>
<path d="M26.1669 85.7385C26.1669 85.7385 33.3318 96.6511 20.5276 108.12C15.6616 94.1141 26.1669 85.7385 26.1669 85.7385Z" fill="#001011"/>
<path d="M23.4549 74.9361C23.4549 74.9361 27.0473 84.6789 15.1364 91.1591C13.8659 79.4552 23.4549 74.9361 23.4549 74.9361Z" fill="#001011"/>
<path d="M25.9304 61.568C25.9304 61.568 27.8469 72.1614 14.5562 76.5405C15.3554 64.3827 25.9304 61.568 25.9304 61.568Z" fill="#001011"/>
<path d="M2.34283 105.038C2.34283 105.038 13.9075 100.076 22.5322 114.795C8.44111 116.919 2.34283 105.038 2.34283 105.038Z" fill="#001011"/>
<path d="M0.728043 87.1467C0.728043 87.1467 10.8771 84.6424 16.0439 97.9091C4.18921 97.7379 0.728043 87.1467 0.728043 87.1467Z" fill="#001011"/>
<path d="M3.88242 67.5181C3.88242 67.5181 14.66 69.5529 14.052 84.5271C2.76097 79.1824 3.88242 67.5181 3.88242 67.5181Z" fill="#001011"/>
<path d="M10.1295 52.7933C10.1295 52.7933 18.3659 55.5414 16.3522 67.2102C8.05324 61.8134 10.1295 52.7933 10.1295 52.7933Z" fill="#001011"/>
<path d="M20.6473 40.3401C20.6473 40.3401 24.5941 46.5631 17.2593 53.0806C14.6389 45.0985 20.6473 40.3401 20.6473 40.3401Z" fill="#001011"/>
<path d="M30.0915 46.8719C30.0915 46.8719 30.5839 56.7262 17.8826 59.2527C20.0653 48.2725 30.0915 46.8719 30.0915 46.8719Z" fill="#001011"/>
<path d="M35.3156 34.4085C35.3156 34.4085 35.3914 42.9381 24.3313 44.6505C26.606 35.2474 35.3156 34.4085 35.3156 34.4085Z" fill="#001011"/>
<path d="M52.0546 111.428C52.0546 111.428 64.6458 117.999 58.4901 136.285C46.4585 125.428 52.0546 111.428 52.0546 111.428Z" fill="#001011"/>
<path d="M50.7537 154.285C50.7537 154.285 56.07 138.286 75.0893 142.798C68.9411 146.571 65.0238 157.428 50.7537 154.285Z" fill="#001011"/>
<path d="M32.158 153.259C32.158 153.259 37.4743 137.259 56.4936 141.771C50.3453 145.545 46.4281 156.402 32.158 153.259Z" fill="#001011"/>
<path d="M79.0148 136.285C79.0148 136.285 86.5695 132.857 95.5233 135.999V137.142C84.6109 133.714 81.2532 139.999 76.7763 139.428C76.7763 140.571 73.4187 144.571 69.7812 140.571C69.7812 140.571 32.0075 145.714 16.0586 101.714C16.0586 101.714 9.62305 74.2851 18.5768 58.8566C12.9807 71.9993 13.9722 86.285 17.7374 101.714C33.9661 143.142 71.46 137.428 71.46 137.428C75.3773 133.714 78.4552 133.999 79.0148 136.285Z" fill="#001011"/>
<path d="M134.976 110.571C134.976 110.571 122.384 117.142 128.54 135.428C140.572 124.571 134.976 110.571 134.976 110.571Z" fill="#001011"/>
<path d="M163.055 107.999C163.055 107.999 150.464 114.571 156.619 132.857C168.651 121.999 163.055 107.999 163.055 107.999Z" fill="#001011"/>
<path d="M181.891 134.241C181.891 134.241 172.127 123.797 156.724 135.044C170.351 143.716 181.891 134.241 181.891 134.241Z" fill="#001011"/>
<path d="M170.259 98.8401C170.259 98.8401 160.611 107.533 170.137 121.95C178.332 109.669 170.259 98.8401 170.259 98.8401Z" fill="#001011"/>
<path d="M191.419 123.603C191.419 123.603 182.567 114.527 169.113 124.798C181.358 132.228 191.419 123.603 191.419 123.603Z" fill="#001011"/>
<path d="M173.833 85.7385C173.833 85.7385 166.668 96.6511 179.472 108.12C184.338 94.1141 173.833 85.7385 173.833 85.7385Z" fill="#001011"/>
<path d="M176.545 74.9361C176.545 74.9361 172.953 84.6789 184.864 91.1591C186.134 79.4552 176.545 74.9361 176.545 74.9361Z" fill="#001011"/>
<path d="M174.07 61.568C174.07 61.568 172.153 72.1614 185.444 76.5405C184.645 64.3827 174.07 61.568 174.07 61.568Z" fill="#001011"/>
<path d="M197.657 105.038C197.657 105.038 186.093 100.076 177.468 114.795C191.559 116.919 197.657 105.038 197.657 105.038Z" fill="#001011"/>
<path d="M199.272 87.1467C199.272 87.1467 189.123 84.6424 183.956 97.9091C195.811 97.7379 199.272 87.1467 199.272 87.1467Z" fill="#001011"/>
<path d="M196.118 67.5181C196.118 67.5181 185.34 69.5529 185.948 84.5271C197.239 79.1824 196.118 67.5181 196.118 67.5181Z" fill="#001011"/>
<path d="M189.871 52.7933C189.871 52.7933 181.634 55.5414 183.648 67.2102C191.947 61.8134 189.871 52.7933 189.871 52.7933Z" fill="#001011"/>
<path d="M179.353 40.3401C179.353 40.3401 175.406 46.5631 182.741 53.0806C185.361 45.0985 179.353 40.3401 179.353 40.3401Z" fill="#001011"/>
<path d="M169.909 46.8719C169.909 46.8719 169.416 56.7262 182.117 59.2527C179.935 48.2725 169.909 46.8719 169.909 46.8719Z" fill="#001011"/>
<path d="M164.684 34.4085C164.684 34.4085 164.609 42.9381 175.669 44.6505C173.394 35.2474 164.684 34.4085 164.684 34.4085Z" fill="#001011"/>
<path d="M147.945 111.428C147.945 111.428 135.354 117.999 141.51 136.285C153.541 125.428 147.945 111.428 147.945 111.428Z" fill="#001011"/>
<path d="M149.246 154.285C149.246 154.285 143.93 138.286 124.911 142.798C131.059 146.571 134.976 157.428 149.246 154.285Z" fill="#001011"/>
<path d="M167.842 153.259C167.842 153.259 162.526 137.259 143.506 141.771C149.655 145.545 153.572 156.402 167.842 153.259Z" fill="#001011"/>
<path d="M120.985 136.285C120.985 136.285 113.43 132.857 104.477 135.999V137.142C115.389 133.714 118.747 139.999 123.224 139.428C123.224 140.571 126.581 144.571 130.219 140.571C130.219 140.571 167.993 145.714 183.941 101.714C183.941 101.714 190.377 74.2851 181.423 58.8566C187.019 71.9993 186.028 86.285 182.263 101.714C166.034 143.142 128.54 137.428 128.54 137.428C124.623 133.714 121.545 133.999 120.985 136.285Z" fill="#001011"/>
<path d="M76.2153 141.16C67.262 148.285 72.2985 163.428 75.0966 168" stroke="#001011" stroke-width="0.571429"/>
<path d="M117.208 130.136C117.208 130.136 112.536 128.407 109.364 134.419C114.991 134.971 117.208 130.136 117.208 130.136Z" fill="#001011"/>
<path d="M123.924 130.136C123.924 130.136 119.252 128.407 116.08 134.419C121.706 134.971 123.924 130.136 123.924 130.136Z" fill="#001011"/>
<path d="M111.89 145.361C111.89 145.361 107.449 143.082 109.549 136.598C113.807 140.394 111.89 145.361 111.89 145.361Z" fill="#001011"/>
<path d="M116.504 145.361C116.504 145.361 112.064 143.082 114.163 136.598C118.421 140.394 116.504 145.361 116.504 145.361Z" fill="#001011"/>
<path d="M121.326 146.161C121.326 146.161 116.88 143.894 118.962 137.404C123.23 141.189 121.326 146.161 121.326 146.161Z" fill="#001011"/>
<path d="M124.121 148.004C124.121 148.004 121.252 145.169 124.385 140.712C126.758 144.665 124.121 148.004 124.121 148.004Z" fill="#001011"/>
<path d="M125.498 152.38C125.498 152.38 123.467 149.734 126.517 146.453C128.02 149.955 125.498 152.38 125.498 152.38Z" fill="#001011"/>
<path d="M125.225 156.888C125.225 156.888 124.754 153.561 128.999 152.267C128.594 156.068 125.225 156.888 125.225 156.888Z" fill="#001011"/>
<path d="M132.955 152.682C132.955 152.682 129.739 153.4 128.171 149.17C131.912 149.31 132.955 152.682 132.955 152.682Z" fill="#001011"/>
<path d="M123.674 161.025C123.674 161.025 124.409 157.749 128.825 158.103C127.106 161.5 123.674 161.025 123.674 161.025Z" fill="#001011"/>
<path d="M132.341 158.76C132.341 158.76 129.088 158.247 129.118 153.723C132.559 155.23 132.341 158.76 132.341 158.76Z" fill="#001011"/>
<path d="M123.445 166.035C123.445 166.035 124.061 163.289 127.762 163.586C126.322 166.433 123.445 166.035 123.445 166.035Z" fill="#001011"/>
<path d="M122.083 170.477C122.083 170.477 122.121 167.66 125.802 167.159C124.977 170.251 122.083 170.477 122.083 170.477Z" fill="#001011"/>
<path d="M127.438 169.136C127.438 169.136 125.547 167.085 127.85 164.111C129.363 166.918 127.438 169.136 127.438 169.136Z" fill="#001011"/>
<path d="M130.71 164.137C130.71 164.137 127.983 163.707 128.009 159.916C130.893 161.179 130.71 164.137 130.71 164.137Z" fill="#001011"/>
<path d="M123.955 141.16C132.908 148.285 127.871 163.428 125.073 168" stroke="#001011" stroke-width="0.571429"/>
<path d="M88.9119 166.571H81.2479V165.195L84.9439 161.675C85.9839 160.667 86.7199 159.851 86.7199 158.843C86.7199 158.075 86.2719 157.419 85.2319 157.419C83.6479 157.419 82.6559 158.427 82.7519 160.491L81.2319 159.403C81.1839 157.259 82.9279 155.691 85.3919 155.691C87.5519 155.691 88.6079 156.971 88.6079 158.731C88.6079 160.459 87.0719 161.947 85.9359 162.891L84.4479 164.203L83.1999 165.131L84.7999 164.971H88.9119V166.571ZM94.5927 166.715C91.6007 166.715 90.0807 164.347 90.0807 161.195C90.0807 158.059 91.6007 155.691 94.5927 155.691C97.5847 155.691 99.0887 158.059 99.0887 161.195C99.0887 164.347 97.5847 166.715 94.5927 166.715ZM94.5927 164.987C96.5127 164.987 97.2007 163.451 97.2007 161.195C97.2007 158.955 96.5127 157.403 94.5927 157.403C92.6887 157.403 91.9847 158.955 91.9847 161.195C91.9847 163.451 92.6887 164.987 94.5927 164.987ZM108.256 166.571H100.592V165.195L104.288 161.675C105.328 160.667 106.064 159.851 106.064 158.843C106.064 158.075 105.616 157.419 104.576 157.419C102.992 157.419 102 158.427 102.096 160.491L100.576 159.403C100.528 157.259 102.272 155.691 104.736 155.691C106.896 155.691 107.952 156.971 107.952 158.731C107.952 160.459 106.416 161.947 105.28 162.891L103.792 164.203L102.544 165.131L104.144 164.971H108.256V166.571ZM113.749 166.731C111.701 166.731 110.181 165.643 109.637 164.251L111.077 162.859C111.445 164.187 112.389 164.987 113.765 164.987C115.061 164.987 115.765 164.219 115.765 162.971C115.765 161.467 114.757 160.859 113.653 160.859C112.629 160.859 111.909 161.291 111.813 161.979L111.797 162.123L110.037 161.947L110.389 155.851H116.901V157.515H112.117L111.861 161.275C112.197 160.315 113.061 159.547 114.485 159.547C116.517 159.547 117.701 160.923 117.701 163.051C117.701 165.259 116.181 166.731 113.749 166.731Z" fill="#001011"/>
</g>
</svg>
