<svg xmlns="http://www.w3.org/2000/svg" width="100" height="100" viewBox="0 0 100 100" fill="none">
<path d="M75 78.5832H71.8334C68.5 78.5832 65.3333 79.8749 63 82.2082L55.875 89.2501C52.625 92.4585 47.3333 92.4585 44.0833 89.2501L36.9583 82.2082C34.625 79.8749 31.4167 78.5832 28.125 78.5832H25C18.0833 78.5832 12.5 73.0417 12.5 66.2084V20.7499C12.5 13.9165 18.0833 8.375 25 8.375H75C81.9167 8.375 87.5 13.9165 87.5 20.7499V66.2084C87.5 73 81.9167 78.5832 75 78.5832Z" stroke="#B0D45A" stroke-width="2" stroke-miterlimit="10" stroke-linecap="round" stroke-linejoin="round"/>
<path opacity="0.4" d="M29.168 38.1669C29.168 34.2919 32.3346 31.125 36.2096 31.125C40.0846 31.125 43.2513 34.2919 43.2513 38.1669C43.2513 46.0003 32.1263 46.8336 29.6679 54.2919C29.1679 55.8336 30.4596 57.3752 32.0846 57.3752H43.2513" stroke="#B0D45A" stroke-width="2" stroke-linecap="round" stroke-linejoin="round"/>
<path opacity="0.4" d="M66.8333 57.3343V33.5427C66.8333 32.4594 66.125 31.5008 65.0833 31.2092C64.0417 30.9175 62.9167 31.3342 62.3334 32.2508C59.3334 37.0842 56.0833 42.5842 53.25 47.4176C52.7917 48.2092 52.7917 49.2509 53.25 50.0426C53.7083 50.8343 54.5833 51.334 55.5417 51.334H70.8333" stroke="#B0D45A" stroke-width="2" stroke-linecap="round" stroke-linejoin="round"/>
</svg>