<svg xmlns="http://www.w3.org/2000/svg" width="40" height="40" viewBox="0 0 40 40" fill="none">
<path opacity="0.4" d="M36.6667 14.1673C36.6667 20.1507 31.8167 25.0007 25.8333 25.0007C25.55 25.0007 25.25 24.984 24.9667 24.9673C24.55 19.684 20.3166 15.4506 15.0333 15.034C15.0166 14.7506 15 14.4507 15 14.1673C15 8.18398 19.85 3.33398 25.8333 3.33398C31.8167 3.33398 36.6667 8.18398 36.6667 14.1673Z" stroke="#033F2D" stroke-width="1.5" stroke-linecap="round" stroke-linejoin="round"/>
<path d="M24.9987 25.8333C24.9987 31.8167 20.1487 36.6667 14.1654 36.6667C8.18203 36.6667 3.33203 31.8167 3.33203 25.8333C3.33203 19.85 8.18203 15 14.1654 15C14.4487 15 14.7487 15.0166 15.032 15.0333C20.3153 15.45 24.5487 19.6834 24.9654 24.9667C24.982 25.25 24.9987 25.55 24.9987 25.8333Z" stroke="#033F2D" stroke-width="1.5" stroke-linecap="round" stroke-linejoin="round"/>
<path opacity="0.4" d="M12.7 24.366L14.1667 21.666L15.6333 24.366L18.3333 25.8327L15.6333 27.2994L14.1667 29.9993L12.7 27.2994L10 25.8327L12.7 24.366Z" stroke="#033F2D" stroke-width="1.5" stroke-linecap="round" stroke-linejoin="round"/>
</svg>