<svg xmlns="http://www.w3.org/2000/svg" width="100" height="100" viewBox="0 0 100 100" fill="none">
<path d="M49.9987 91.6673C72.9987 91.6673 91.6654 73.0007 91.6654 50.0007C91.6654 27.0007 72.9987 8.33398 49.9987 8.33398C26.9987 8.33398 8.33203 27.0007 8.33203 50.0007C8.33203 73.0007 26.9987 91.6673 49.9987 91.6673Z" stroke="#B0D45A" stroke-width="1.5" stroke-linecap="round" stroke-linejoin="round"/>
<g opacity="0.4">
<path d="M49.9987 66.6654C59.207 66.6654 66.6654 59.207 66.6654 49.9987C66.6654 40.7904 59.207 33.332 49.9987 33.332C40.7904 33.332 33.332 40.7904 33.332 49.9987C33.332 59.207 40.7904 66.6654 49.9987 66.6654Z" stroke="#B0D45A" stroke-width="1.5" stroke-linecap="round" stroke-linejoin="round"/>
<path d="M88.2083 33.332C75.625 30.582 62.5833 30.582 50 33.332" stroke="#B0D45A" stroke-width="1.5" stroke-linecap="round" stroke-linejoin="round"/>
<path d="M16.4551 25.248L16.5384 25.498C20.7467 37.5397 27.2051 48.7064 35.5801 58.3314" stroke="#B0D45A" stroke-width="1.5" stroke-linecap="round" stroke-linejoin="round"/>
<path d="M45.3359 91.4173C53.9193 81.959 60.3776 70.7923 64.2943 58.6673L64.4193 58.334" stroke="#B0D45A" stroke-width="1.5" stroke-linecap="round" stroke-linejoin="round"/>
</g>
</svg>