<svg xmlns="http://www.w3.org/2000/svg" width="100" height="100" viewBox="0 0 100 100" fill="none">
<path d="M77.6237 29.7913C77.7903 32.3329 77.582 35.2079 77.082 38.4163L74.0403 57.9579C71.457 74.2496 63.9153 79.7496 47.6237 77.2079L28.082 74.1246C22.457 73.2496 18.1237 71.7496 14.957 69.4996C8.91533 65.2913 7.16533 58.3746 8.832 47.7079L11.9153 28.1663C14.4987 11.8746 22.0403 6.37461 38.332 8.91628L57.8737 11.9996C70.957 14.0413 77.082 19.3746 77.6237 29.7913Z" stroke="#B0D45A" stroke-width="2" stroke-linecap="round" stroke-linejoin="round"/>
<path opacity="0.4" d="M85.4154 56.1243L79.1654 74.916C73.957 90.5827 65.6237 94.7493 49.957 89.541L31.1654 83.291C21.707 80.166 16.457 75.8327 14.957 69.4994C18.1237 71.7494 22.457 73.2494 28.082 74.1244L47.6237 77.2077C63.9154 79.7494 71.457 74.2493 74.0404 57.9577L77.082 38.416C77.582 35.2077 77.7904 32.3327 77.6237 29.791C87.582 35.0827 89.7487 43.0827 85.4154 56.1243Z" stroke="#B0D45A" stroke-width="2" stroke-linecap="round" stroke-linejoin="round"/>
<path opacity="0.4" d="M34.332 37.416C38.3361 37.416 41.582 34.1701 41.582 30.166C41.582 26.162 38.3361 22.916 34.332 22.916C30.328 22.916 27.082 26.162 27.082 30.166C27.082 34.1701 30.328 37.416 34.332 37.416Z" stroke="#B0D45A" stroke-width="2" stroke-linecap="round" stroke-linejoin="round"/>
</svg>