<svg xmlns="http://www.w3.org/2000/svg" width="40" height="40" viewBox="0 0 40 40" fill="none">
<path d="M16.6654 10.0007H23.332C26.6654 10.0007 26.6654 8.33398 26.6654 6.66732C26.6654 3.33398 24.9987 3.33398 23.332 3.33398H16.6654C14.9987 3.33398 13.332 3.33398 13.332 6.66732C13.332 10.0007 14.9987 10.0007 16.6654 10.0007Z" stroke="#033F2D" stroke-width="1.5" stroke-miterlimit="10" stroke-linecap="round" stroke-linejoin="round"/>
<path d="M23.3333 36.6659H15C6.66667 36.6659 5 33.3326 5 26.6659V16.6659C5 9.06589 7.78333 6.99922 13.3333 6.69922" stroke="#033F2D" stroke-width="1.5" stroke-miterlimit="10" stroke-linecap="round" stroke-linejoin="round"/>
<path d="M26.668 6.69922C32.218 6.99922 35.0013 9.04922 35.0013 16.6659V24.9992" stroke="#033F2D" stroke-width="1.5" stroke-miterlimit="10" stroke-linecap="round" stroke-linejoin="round"/>
<g opacity="0.4">
<path d="M25 31.668V26.668H30" stroke="#033F2D" stroke-width="1.5" stroke-miterlimit="10" stroke-linecap="round" stroke-linejoin="round"/>
<path d="M34.9997 36.6677L25.0664 26.7344" stroke="#033F2D" stroke-width="1.5" stroke-miterlimit="10" stroke-linecap="round" stroke-linejoin="round"/>
</g>
</svg>


