<svg xmlns="http://www.w3.org/2000/svg" width="100" height="100" viewBox="0 0 100 100" fill="none">
<path d="M69.5847 79.084H30.418C28.668 79.084 26.7097 77.709 26.1263 76.0423L8.87632 27.7923C6.41798 20.8757 9.29299 18.7507 15.2097 23.0007L31.4597 34.6257C34.168 36.5007 37.2513 35.5423 38.418 32.5007L45.7513 12.959C48.0847 6.70898 51.9597 6.70898 54.293 12.959L61.6263 32.5007C62.793 35.5423 65.8763 36.5007 68.543 34.6257L83.793 23.7507C90.293 19.084 93.418 21.459 90.7513 29.0007L73.918 76.1256C73.293 77.709 71.3347 79.084 69.5847 79.084Z" stroke="#B0D45A" stroke-width="2" stroke-linecap="round" stroke-linejoin="round"/>
<path opacity="0.34" d="M27.082 91.666H72.9154" stroke="#B0D45A" stroke-width="2" stroke-linecap="round" stroke-linejoin="round"/>
<path opacity="0.34" d="M39.582 58.334H60.4154" stroke="#B0D45A" stroke-width="2" stroke-linecap="round" stroke-linejoin="round"/>
</svg>