<svg xmlns="http://www.w3.org/2000/svg" width="40" height="40" viewBox="0 0 40 40" fill="none">
<path d="M19.9987 36.6673C29.2034 36.6673 36.6654 29.2054 36.6654 20.0007C36.6654 10.7959 29.2034 3.33398 19.9987 3.33398C10.794 3.33398 3.33203 10.7959 3.33203 20.0007C3.33203 29.2054 10.794 36.6673 19.9987 36.6673Z" stroke="#B0D45A" stroke-width="1.5" stroke-linecap="round" stroke-linejoin="round"/>
<g opacity="0.4">
<path d="M13.3333 5H15C11.75 14.7333 11.75 25.2667 15 35H13.3333" stroke="#B0D45A" stroke-width="1.5" stroke-linecap="round" stroke-linejoin="round"/>
<path d="M25 5C28.25 14.7333 28.25 25.2667 25 35" stroke="#B0D45A" stroke-width="1.5" stroke-linecap="round" stroke-linejoin="round"/>
<path d="M5 26.6667V25C14.7333 28.25 25.2667 28.25 35 25V26.6667" stroke="#B0D45A" stroke-width="1.5" stroke-linecap="round" stroke-linejoin="round"/>
<path d="M5 15C14.7333 11.75 25.2667 11.75 35 15" stroke="#B0D45A" stroke-width="1.5" stroke-linecap="round" stroke-linejoin="round"/>
</g>
</svg>

