<svg xmlns="http://www.w3.org/2000/svg" width="40" height="40" viewBox="0 0 40 40" fill="none">
<path d="M36.101 17.3998L34.4676 24.3665C33.0676 30.3832 30.301 32.8165 25.101 32.3165C24.2676 32.2498 23.3676 32.0999 22.401 31.8665L19.601 31.1998C12.651 29.5498 10.501 26.1165 12.1343 19.1499L13.7676 12.1665C14.101 10.7499 14.501 9.51652 15.001 8.49985C16.951 4.46652 20.2676 3.38318 25.8343 4.69985L28.6176 5.34985C35.601 6.98318 37.7343 10.4332 36.101 17.3998Z" stroke="#B0D45A" stroke-width="2" stroke-linecap="round" stroke-linejoin="round"/>
<path opacity="0.4" d="M25.1006 32.3167C24.0672 33.0167 22.7672 33.6 21.1839 34.1167L18.5506 34.9833C11.9339 37.1167 8.45057 35.3333 6.30057 28.7167L4.16724 22.1333C2.0339 15.5167 3.80057 12.0167 10.4172 9.88333L13.0506 9.01667C13.7339 8.8 14.3839 8.61667 15.0006 8.5C14.5006 9.51667 14.1006 10.75 13.7672 12.1667L12.1339 19.15C10.5006 26.1167 12.6506 29.55 19.6006 31.2L22.4006 31.8667C23.3672 32.1 24.2672 32.25 25.1006 32.3167Z" stroke="#B0D45A" stroke-width="2" stroke-linecap="round" stroke-linejoin="round"/>
<path opacity="0.4" d="M21.0664 14.2168L29.1497 16.2668" stroke="#B0D45A" stroke-width="2" stroke-linecap="round" stroke-linejoin="round"/>
<path opacity="0.4" d="M19.4336 20.6665L24.2669 21.8998" stroke="#B0D45A" stroke-width="2" stroke-linecap="round" stroke-linejoin="round"/>
</svg>