<svg xmlns="http://www.w3.org/2000/svg" width="40" height="40" viewBox="0 0 40 40" fill="none">
<path opacity="0.4" d="M29.9969 11.934C29.8969 11.9173 29.7802 11.9173 29.6802 11.934C27.3802 11.8507 25.5469 9.96732 25.5469 7.63399C25.5469 5.25065 27.4635 3.33398 29.8469 3.33398C32.2302 3.33398 34.1469 5.26732 34.1469 7.63399C34.1302 9.96732 32.2969 11.8507 29.9969 11.934Z" stroke="#B0D45A" stroke-width="2" stroke-linecap="round" stroke-linejoin="round"/>
<path opacity="0.4" d="M28.2805 24.0656C30.5638 24.449 33.0805 24.049 34.8471 22.8656C37.1971 21.299 37.1971 18.7323 34.8471 17.1656C33.0638 15.9823 30.5138 15.5823 28.2305 15.9823" stroke="#B0D45A" stroke-width="2" stroke-linecap="round" stroke-linejoin="round"/>
<path opacity="0.4" d="M9.94492 11.934C10.0449 11.9173 10.1616 11.9173 10.2616 11.934C12.5616 11.8507 14.3949 9.96732 14.3949 7.63399C14.3949 5.25065 12.4783 3.33398 10.0949 3.33398C7.71159 3.33398 5.79492 5.26732 5.79492 7.63399C5.81159 9.96732 7.64492 11.8507 9.94492 11.934Z" stroke="#B0D45A" stroke-width="2" stroke-linecap="round" stroke-linejoin="round"/>
<path opacity="0.4" d="M11.6612 24.0656C9.37786 24.449 6.8612 24.049 5.09453 22.8656C2.74453 21.299 2.74453 18.7323 5.09453 17.1656C6.87786 15.9823 9.42786 15.5823 11.7112 15.9823" stroke="#B0D45A" stroke-width="2" stroke-linecap="round" stroke-linejoin="round"/>
<path d="M19.9988 24.3832C19.8988 24.3665 19.7822 24.3665 19.6822 24.3832C17.3822 24.2999 15.5488 22.4165 15.5488 20.0832C15.5488 17.6999 17.4655 15.7832 19.8488 15.7832C22.2322 15.7832 24.1488 17.7165 24.1488 20.0832C24.1322 22.4165 22.2988 24.3165 19.9988 24.3832Z" stroke="#B0D45A" stroke-width="2" stroke-linecap="round" stroke-linejoin="round"/>
<path d="M15.1492 29.6336C12.7992 31.2003 12.7992 33.7669 15.1492 35.3336C17.8159 37.1169 22.1826 37.1169 24.8492 35.3336C27.1992 33.7669 27.1992 31.2003 24.8492 29.6336C22.1992 27.8669 17.8159 27.8669 15.1492 29.6336Z" stroke="#B0D45A" stroke-width="2" stroke-linecap="round" stroke-linejoin="round"/>
</svg>

