<svg xmlns="http://www.w3.org/2000/svg" width="40" height="40" viewBox="0 0 40 40" fill="none">
<path d="M17.4836 3.71563L9.16692 6.83228C7.25025 7.54895 5.68359 9.8156 5.68359 11.8656V24.2489C5.68359 26.2156 6.98361 28.7989 8.56695 29.9823L15.7336 35.3323C18.0836 37.099 21.9502 37.099 24.3002 35.3323L31.4669 29.9823C33.0503 28.7989 34.3502 26.2156 34.3502 24.2489V11.8656C34.3502 9.8156 32.7836 7.54895 30.8669 6.83228L22.5503 3.71563C21.1336 3.19896 18.8669 3.19896 17.4836 3.71563Z" stroke="#033F2D" stroke-width="1.5" stroke-linecap="round" stroke-linejoin="round"/>
<path opacity="0.4" d="M20.0001 18.2007C19.9335 18.2007 19.8501 18.2007 19.7835 18.2007C18.2168 18.1507 16.9668 16.8507 16.9668 15.2673C16.9668 13.6507 18.2835 12.334 19.9001 12.334C21.5168 12.334 22.8335 13.6507 22.8335 15.2673C22.8168 16.8673 21.5668 18.1507 20.0001 18.2007Z" stroke="#033F2D" stroke-width="1.5" stroke-linecap="round" stroke-linejoin="round"/>
<path opacity="0.4" d="M16.6844 22.8676C15.0844 23.9342 15.0844 25.6842 16.6844 26.7509C18.501 27.9676 21.4844 27.9676 23.301 26.7509C24.901 25.6842 24.901 23.9342 23.301 22.8676C21.501 21.6509 18.5177 21.6509 16.6844 22.8676Z" stroke="#033F2D" stroke-width="1.5" stroke-linecap="round" stroke-linejoin="round"/>
</svg>