<svg xmlns="http://www.w3.org/2000/svg" width="100" height="29" viewBox="0 0 100 29" fill="none">
<path d="M99.4445 25.6553C99.4445 27.2007 98.1715 28.4525 96.5969 28.4525H3.40701C1.83316 28.4525 0.555664 27.2007 0.555664 25.6553V3.34781C0.555664 1.8031 1.83316 0.546875 3.40701 0.546875H96.5962C98.1715 0.546875 99.4438 1.8031 99.4438 3.34781L99.4445 25.6553Z" fill="#001011"/>
<path d="M96.2963 0.580906C98.0111 0.580906 99.4065 1.94663 99.4065 3.625V25.375C99.4065 27.0534 98.0111 28.4191 96.2963 28.4191H3.7037C1.98889 28.4191 0.593518 27.0534 0.593518 25.375V3.625C0.593518 1.94663 1.98889 0.580906 3.7037 0.580906H96.2963ZM96.2963 1.53263e-06H3.7037C1.66759 1.53263e-06 0 1.63216 0 3.625V25.375C0 27.3678 1.66759 29 3.7037 29H96.2963C98.3324 29 100 27.3678 100 25.375V3.625C100 1.63216 98.3324 1.53263e-06 96.2963 1.53263e-06Z" fill="#001011"/>
<path d="M22.3171 14.3439C22.2957 12.0072 24.272 10.8704 24.3623 10.8175C23.2431 9.22031 21.5082 9.00209 20.8986 8.98469C19.4416 8.83461 18.0282 9.83801 17.286 9.83801C16.529 9.83801 15.386 8.99919 14.1542 9.02384C12.569 9.04776 11.086 9.94604 10.2727 11.3409C8.59418 14.1851 9.84603 18.3647 11.4542 20.6637C12.2586 21.7896 13.1986 23.0468 14.429 23.0026C15.6327 22.954 16.0823 22.2515 17.5349 22.2515C18.9742 22.2515 19.3964 23.0026 20.6512 22.9743C21.9431 22.954 22.7564 21.8433 23.5327 20.7072C24.4623 19.4167 24.8357 18.1458 24.8505 18.0805C24.8201 18.0704 22.3416 17.1446 22.3171 14.3439Z" fill="white"/>
<path d="M19.9468 7.47234C20.5942 6.67991 21.0371 5.60184 20.9142 4.50781C19.9771 4.54841 18.8053 5.14219 18.1305 5.91721C17.5334 6.60016 17.0001 7.71956 17.1379 8.77226C18.1905 8.84911 19.2712 8.25244 19.9468 7.47234Z" fill="white"/>
<path d="M36.3333 7.25802C36.3333 8.11134 36.0718 8.75369 35.5496 9.18507C35.0659 9.58309 34.3785 9.78247 33.4881 9.78247C33.0466 9.78247 32.6688 9.76362 32.3525 9.72592V5.06344C32.7651 4.99819 33.2096 4.96484 33.6896 4.96484C34.5377 4.96484 35.177 5.14537 35.6081 5.50642C36.0911 5.91459 36.3333 6.49822 36.3333 7.25802ZM35.5148 7.27904C35.5148 6.72587 35.3651 6.30174 35.0659 6.00594C34.7666 5.71087 34.3296 5.56297 33.754 5.56297C33.5096 5.56297 33.3014 5.57892 33.1288 5.61227V9.15679C33.2244 9.17129 33.3992 9.17782 33.6533 9.17782C34.2474 9.17782 34.7059 9.01614 35.0288 8.69279C35.3518 8.36944 35.5148 7.89819 35.5148 7.27904Z" fill="white"/>
<path d="M40.6729 8.0021C40.6729 8.52773 40.5196 8.95838 40.2129 9.29623C39.8914 9.6435 39.4655 9.81678 38.9337 9.81678C38.4211 9.81678 38.0129 9.65075 37.7085 9.31725C37.4048 8.98448 37.2529 8.5647 37.2529 8.05865C37.2529 7.5294 37.4092 7.09513 37.7233 6.758C38.0374 6.42088 38.4596 6.25195 38.9914 6.25195C39.504 6.25195 39.9159 6.41798 40.2277 6.75075C40.524 7.0741 40.6729 7.4917 40.6729 8.0021ZM39.8677 8.02675C39.8677 7.71138 39.7981 7.44095 39.6596 7.21548C39.4966 6.94288 39.2648 6.80658 38.9633 6.80658C38.6515 6.80658 38.4144 6.94288 38.2514 7.21548C38.1122 7.44095 38.0433 7.71573 38.0433 8.04053C38.0433 8.3559 38.1129 8.62633 38.2514 8.8518C38.4196 9.1244 38.6537 9.2607 38.9559 9.2607C39.2522 9.2607 39.4848 9.12223 39.6522 8.84455C39.7959 8.61473 39.8677 8.34213 39.8677 8.02675Z" fill="white"/>
<path d="M46.4928 6.32202L45.4003 9.73967H44.6891L44.2366 8.2556C44.1217 7.88512 44.0284 7.51682 43.9558 7.15142H43.9417C43.8743 7.52697 43.781 7.89455 43.661 8.2556L43.1803 9.73967H42.461L41.4336 6.32202H42.2314L42.6262 7.94675C42.7217 8.331 42.8003 8.69712 42.8632 9.04367H42.8773C42.9351 8.75802 43.0306 8.39407 43.1654 7.954L43.661 6.32275H44.2936L44.7684 7.9192C44.8832 8.30852 44.9766 8.68335 45.0484 9.0444H45.0699C45.1225 8.69277 45.2017 8.31795 45.3069 7.9192L45.7306 6.32275H46.4928V6.32202Z" fill="white"/>
<path d="M50.5168 9.73943H49.7405V7.78193C49.7405 7.17873 49.5064 6.87713 49.0368 6.87713C48.8064 6.87713 48.6205 6.95978 48.4761 7.1258C48.3331 7.29183 48.2605 7.48758 48.2605 7.7116V9.7387H47.4842V7.29835C47.4842 6.9982 47.4746 6.67268 47.4561 6.32033H48.1383L48.1746 6.85465H48.1961C48.2864 6.68863 48.4212 6.5516 48.5983 6.44213C48.8086 6.31453 49.0442 6.25 49.302 6.25C49.6279 6.25 49.899 6.35295 50.1146 6.55958C50.3827 6.8126 50.5168 7.19033 50.5168 7.69203V9.73943Z" fill="white"/>
<path d="M52.6574 9.73973H51.8818V4.75391H52.6574V9.73973Z" fill="white"/>
<path d="M57.2286 8.0021C57.2286 8.52773 57.0753 8.95838 56.7686 9.29623C56.4471 9.6435 56.0204 9.81678 55.4893 9.81678C54.976 9.81678 54.5679 9.65075 54.2641 9.31725C53.9604 8.98448 53.8086 8.5647 53.8086 8.05865C53.8086 7.5294 53.9649 7.09513 54.279 6.758C54.593 6.42088 55.0153 6.25195 55.5464 6.25195C56.0597 6.25195 56.4708 6.41798 56.7834 6.75075C57.0797 7.0741 57.2286 7.4917 57.2286 8.0021ZM56.4227 8.02675C56.4227 7.71138 56.353 7.44095 56.2145 7.21548C56.0523 6.94288 55.8197 6.80658 55.519 6.80658C55.2064 6.80658 54.9693 6.94288 54.8071 7.21548C54.6679 7.44095 54.599 7.71573 54.599 8.04053C54.599 8.3559 54.6686 8.62633 54.8071 8.8518C54.9753 9.1244 55.2093 9.2607 55.5116 9.2607C55.8079 9.2607 56.0397 9.12223 56.2071 8.84455C56.3516 8.61473 56.4227 8.34213 56.4227 8.02675Z" fill="white"/>
<path d="M60.9848 9.7392H60.2878L60.23 9.34553H60.2085C59.97 9.65945 59.63 9.81678 59.1885 9.81678C58.8589 9.81678 58.5922 9.7131 58.3915 9.5072C58.2093 9.32015 58.1182 9.08743 58.1182 8.8112C58.1182 8.3936 58.2959 8.07533 58.6537 7.85493C59.0108 7.63453 59.513 7.5265 60.1596 7.53158V7.46778C60.1596 7.01755 59.9182 6.7928 59.4345 6.7928C59.09 6.7928 58.7863 6.87763 58.5241 7.04583L58.3663 6.54703C58.6908 6.35055 59.0915 6.25195 59.5641 6.25195C60.4767 6.25195 60.9345 6.7232 60.9345 7.6657V8.9243C60.9345 9.26578 60.9515 9.53765 60.9848 9.7392ZM60.1789 8.5647V8.03763C59.3226 8.02313 58.8945 8.25295 58.8945 8.72638C58.8945 8.90473 58.9433 9.03813 59.0433 9.1273C59.1433 9.21648 59.2708 9.2607 59.4226 9.2607C59.593 9.2607 59.7522 9.20778 59.8974 9.10265C60.0433 8.9968 60.133 8.86268 60.1663 8.6981C60.1745 8.66113 60.1789 8.61618 60.1789 8.5647Z" fill="white"/>
<path d="M65.3958 9.73973H64.7069L64.6706 9.19091H64.6492C64.4292 9.60851 64.0543 9.81731 63.5277 9.81731C63.1069 9.81731 62.7566 9.65563 62.4788 9.33228C62.201 9.00893 62.0625 8.58916 62.0625 8.07368C62.0625 7.52051 62.2129 7.07246 62.5151 6.73026C62.8077 6.41126 63.1662 6.25176 63.5929 6.25176C64.0618 6.25176 64.3899 6.40618 64.5766 6.71576H64.5914V4.75391H65.3684V8.81898C65.3684 9.15176 65.3773 9.45843 65.3958 9.73973ZM64.5914 8.29843V7.72858C64.5914 7.62998 64.584 7.55023 64.5699 7.48933C64.5262 7.30663 64.4321 7.15293 64.2892 7.02896C64.1447 6.90498 63.9706 6.84263 63.7699 6.84263C63.4803 6.84263 63.2536 6.95501 63.0869 7.18048C62.9218 7.40596 62.8381 7.69378 62.8381 8.04541C62.8381 8.38326 62.9173 8.65731 63.0766 8.86828C63.2447 9.09303 63.4714 9.20541 63.7551 9.20541C64.0099 9.20541 64.2136 9.11188 64.3684 8.92411C64.5181 8.75083 64.5914 8.54203 64.5914 8.29843Z" fill="white"/>
<path d="M72.0352 8.0021C72.0352 8.52773 71.8819 8.95838 71.5752 9.29623C71.2538 9.6435 70.8286 9.81678 70.296 9.81678C69.7841 9.81678 69.376 9.65075 69.0708 9.31725C68.7671 8.98448 68.6152 8.5647 68.6152 8.05865C68.6152 7.5294 68.7715 7.09513 69.0856 6.758C69.3997 6.42088 69.8219 6.25195 70.3545 6.25195C70.8663 6.25195 71.2789 6.41798 71.5901 6.75075C71.8863 7.0741 72.0352 7.4917 72.0352 8.0021ZM71.2308 8.02675C71.2308 7.71138 71.1612 7.44095 71.0226 7.21548C70.8589 6.94288 70.6278 6.80658 70.3256 6.80658C70.0145 6.80658 69.7775 6.94288 69.6138 7.21548C69.4745 7.44095 69.4056 7.71573 69.4056 8.04053C69.4056 8.3559 69.4752 8.62633 69.6138 8.8518C69.7819 9.1244 70.016 9.2607 70.3182 9.2607C70.6145 9.2607 70.8478 9.12223 71.0152 8.84455C71.1582 8.61473 71.2308 8.34213 71.2308 8.02675Z" fill="white"/>
<path d="M76.2094 9.73943H75.4339V7.78193C75.4339 7.17873 75.1998 6.87713 74.7294 6.87713C74.499 6.87713 74.3131 6.95978 74.1694 7.1258C74.0257 7.29183 73.9539 7.48758 73.9539 7.7116V9.7387H73.1768V7.29835C73.1768 6.9982 73.1679 6.67268 73.1494 6.32033H73.8309L73.8672 6.85465H73.8887C73.9798 6.68863 74.1146 6.5516 74.2909 6.44213C74.502 6.31453 74.7368 6.25 74.9953 6.25C75.3205 6.25 75.5916 6.35295 75.8072 6.55958C76.0761 6.8126 76.2094 7.19033 76.2094 7.69203V9.73943Z" fill="white"/>
<path d="M81.4343 6.89122H80.5795V8.55147C80.5795 8.97342 80.7313 9.1844 81.0321 9.1844C81.1713 9.1844 81.2869 9.1728 81.378 9.14887L81.398 9.72525C81.2447 9.7818 81.0432 9.81007 80.795 9.81007C80.4884 9.81007 80.2498 9.71872 80.0772 9.53602C79.9039 9.35332 79.818 9.04592 79.818 8.61455V6.89122H79.3076V6.3221H79.818V5.6957L80.5787 5.47095V6.32137H81.4335V6.89122H81.4343Z" fill="white"/>
<path d="M85.5434 9.73973H84.7663V7.79673C84.7663 7.18411 84.5322 6.87743 84.0633 6.87743C83.7033 6.87743 83.4574 7.05506 83.3226 7.41031C83.2996 7.48498 83.2863 7.57633 83.2863 7.68363V9.73901H82.5107V4.75391H83.2863V6.81363H83.3011C83.5456 6.43881 83.8959 6.25176 84.35 6.25176C84.6715 6.25176 84.9374 6.35471 85.1485 6.56133C85.4115 6.81871 85.5434 7.20151 85.5434 7.70756V9.73973Z" fill="white"/>
<path d="M89.7832 7.86912C89.7832 8.00542 89.7728 8.11997 89.7543 8.2135H87.4261C87.4365 8.55135 87.5476 8.80872 87.7632 8.98707C87.9602 9.14657 88.2143 9.22632 88.5254 9.22632C88.8698 9.22632 89.1839 9.17267 89.4669 9.06465L89.5883 9.59245C89.2572 9.7331 88.8676 9.80342 88.4165 9.80342C87.8757 9.80342 87.4498 9.64755 87.1417 9.3358C86.832 9.02405 86.6787 8.60572 86.6787 8.08082C86.6787 7.56535 86.8217 7.13615 87.1098 6.79395C87.4106 6.42855 87.8172 6.24585 88.3306 6.24585C88.8328 6.24585 89.2143 6.42855 89.472 6.79395C89.6802 7.08395 89.7832 7.44282 89.7832 7.86912ZM89.0424 7.67265C89.0483 7.44717 88.9972 7.25287 88.892 7.08902C88.7572 6.87805 88.552 6.7722 88.2743 6.7722C88.0209 6.7722 87.8143 6.87515 87.6565 7.08177C87.5276 7.24635 87.4513 7.44282 87.4261 7.67265H89.0424Z" fill="white"/>
<path d="M39.7373 22.8397H38.055L37.1336 20.0057H33.9306L33.0528 22.8397H31.415L34.5884 13.1914H36.5484L39.7373 22.8397ZM36.8558 18.8167L36.0224 16.2973C35.9343 16.0399 35.7691 15.4338 35.5254 14.4797H35.4958C35.3987 14.8901 35.2424 15.4962 35.0276 16.2973L34.2091 18.8167H36.8558Z" fill="white"/>
<path d="M47.8979 19.2761C47.8979 20.4593 47.5713 21.3945 46.9179 22.0811C46.3327 22.6923 45.6061 22.9975 44.7387 22.9975C43.8024 22.9975 43.1298 22.6683 42.7201 22.01H42.6905V25.6749H41.1113V18.1733C41.1113 17.4295 41.0913 16.6661 41.0527 15.8831H42.4416L42.5298 16.9858H42.5594C43.0861 16.1549 43.8853 15.7402 44.9579 15.7402C45.7964 15.7402 46.4964 16.0643 47.0564 16.7132C47.6179 17.3628 47.8979 18.2168 47.8979 19.2761ZM46.289 19.3326C46.289 18.6555 46.1335 18.0972 45.8209 17.6579C45.4794 17.1997 45.0209 16.9706 44.4461 16.9706C44.0564 16.9706 43.7024 17.0982 43.3861 17.3497C43.069 17.6035 42.8616 17.9348 42.7646 18.3452C42.7157 18.5366 42.6913 18.6932 42.6913 18.8164V19.9764C42.6913 20.4825 42.8498 20.9095 43.1668 21.2582C43.4838 21.6069 43.8957 21.7809 44.4024 21.7809C44.9972 21.7809 45.4601 21.5562 45.7913 21.1081C46.1231 20.6594 46.289 20.0678 46.289 19.3326Z" fill="white"/>
<path d="M56.0739 19.2761C56.0739 20.4593 55.7473 21.3945 55.0932 22.0811C54.5088 22.6923 53.7821 22.9975 52.9147 22.9975C51.9784 22.9975 51.3058 22.6683 50.8969 22.01H50.8673V25.6749H49.288V18.1733C49.288 17.4295 49.268 16.6661 49.2295 15.8831H50.6184L50.7065 16.9858H50.7362C51.2621 16.1549 52.0613 15.7402 53.1347 15.7402C53.9725 15.7402 54.6725 16.0643 55.2339 16.7132C55.7932 17.3628 56.0739 18.2168 56.0739 19.2761ZM54.465 19.3326C54.465 18.6555 54.3088 18.0972 53.9962 17.6579C53.6547 17.1997 53.1976 16.9706 52.6221 16.9706C52.2317 16.9706 51.8784 17.0982 51.5613 17.3497C51.2443 17.6035 51.0376 17.9348 50.9406 18.3452C50.8925 18.5366 50.8673 18.6932 50.8673 18.8164V19.9764C50.8673 20.4825 51.0258 20.9095 51.3413 21.2582C51.6584 21.6062 52.0702 21.7809 52.5784 21.7809C53.1732 21.7809 53.6362 21.5562 53.9673 21.1081C54.2991 20.6594 54.465 20.0678 54.465 19.3326Z" fill="white"/>
<path d="M65.2142 20.1348C65.2142 20.9555 64.9231 21.6232 64.3386 22.1387C63.6964 22.702 62.8023 22.9833 61.6535 22.9833C60.5927 22.9833 59.7423 22.7832 59.0986 22.3823L59.4646 21.0939C60.1579 21.5043 60.9186 21.7102 61.7475 21.7102C62.3423 21.7102 62.8053 21.5782 63.1379 21.3158C63.469 21.0533 63.6342 20.701 63.6342 20.2616C63.6342 19.8701 63.4979 19.5403 63.2246 19.2727C62.9527 19.0052 62.4986 18.7565 61.8646 18.5267C60.1386 17.8967 59.2764 16.9738 59.2764 15.7601C59.2764 14.967 59.5786 14.3166 60.1838 13.8106C60.7868 13.3038 61.5912 13.0508 62.5972 13.0508C63.4942 13.0508 64.2394 13.2038 64.8342 13.509L64.4394 14.769C63.8838 14.4732 63.2557 14.3253 62.5527 14.3253C61.9972 14.3253 61.5631 14.4595 61.252 14.7263C60.989 14.9648 60.8572 15.2555 60.8572 15.5999C60.8572 15.9812 61.0075 16.2966 61.3097 16.5446C61.5727 16.7737 62.0505 17.0216 62.7438 17.2891C63.592 17.6234 64.2149 18.0141 64.6157 18.4622C65.0149 18.9088 65.2142 19.4678 65.2142 20.1348Z" fill="white"/>
<path d="M70.4363 17.0439H68.6956V20.4216C68.6956 21.2808 69.0022 21.71 69.6171 21.71C69.8993 21.71 70.1333 21.686 70.3185 21.6382L70.3622 22.812C70.0511 22.9258 69.6415 22.9831 69.1341 22.9831C68.5104 22.9831 68.023 22.7967 67.6711 22.4248C67.3208 22.0522 67.1445 21.4272 67.1445 20.5492V17.0424H66.1074V15.8824H67.1445V14.6086L68.6956 14.1504V15.8824H70.4363V17.0439Z" fill="white"/>
<path d="M78.2903 19.3056C78.2903 20.3749 77.9778 21.2529 77.3541 21.9395C76.7 22.6464 75.8318 22.9987 74.7496 22.9987C73.7066 22.9987 72.8763 22.6601 72.257 21.983C71.6378 21.3058 71.3281 20.4511 71.3281 19.4208C71.3281 18.3428 71.6466 17.4597 72.2859 16.7731C72.9237 16.0858 73.7844 15.7422 74.8666 15.7422C75.9096 15.7422 76.7489 16.0808 77.3822 16.7586C77.9881 17.4162 78.2903 18.2652 78.2903 19.3056ZM76.6518 19.3556C76.6518 18.714 76.5118 18.1637 76.2281 17.7048C75.897 17.1494 75.4237 16.8725 74.8103 16.8725C74.1755 16.8725 73.6933 17.1501 73.3622 17.7048C73.0785 18.1644 72.9385 18.7234 72.9385 19.3846C72.9385 20.0262 73.0785 20.5765 73.3622 21.0347C73.7037 21.59 74.1807 21.867 74.7963 21.867C75.3992 21.867 75.8726 21.5842 76.214 21.0202C76.5052 20.5526 76.6518 19.9965 76.6518 19.3556Z" fill="white"/>
<path d="M83.4231 17.2424C83.2668 17.2142 83.1001 17.1997 82.9253 17.1997C82.3698 17.1997 81.9401 17.4048 81.6379 17.8159C81.3749 18.1784 81.2431 18.6366 81.2431 19.1898V22.8402H79.6646L79.6794 18.074C79.6794 17.2722 79.6594 16.5421 79.6201 15.8838H80.9957L81.0535 17.2149H81.0972C81.2638 16.7574 81.5268 16.3891 81.8868 16.1129C82.2386 15.8642 82.6186 15.7402 83.0283 15.7402C83.1742 15.7402 83.3061 15.7504 83.4231 15.7685V17.2424Z" fill="white"/>
<path d="M90.486 19.0318C90.486 19.3088 90.4675 19.5422 90.4282 19.7329H85.6904C85.7089 20.4202 85.9378 20.9458 86.3778 21.3083C86.7771 21.6324 87.2934 21.7948 87.9275 21.7948C88.6289 21.7948 89.2689 21.6853 89.8445 21.4657L90.0919 22.5387C89.4193 22.8258 88.6252 22.9686 87.7089 22.9686C86.6067 22.9686 85.7415 22.651 85.1119 22.0167C84.4838 21.3823 84.1689 20.5304 84.1689 19.4618C84.1689 18.4127 84.4615 17.5391 85.0475 16.8423C85.6608 16.0985 86.4897 15.7266 87.5326 15.7266C88.5571 15.7266 89.3326 16.0985 89.8593 16.8423C90.2763 17.4332 90.486 18.164 90.486 19.0318ZM88.9801 18.6309C88.9904 18.1727 88.8875 17.7769 88.6734 17.4426C88.4001 17.0127 87.9801 16.7981 87.4149 16.7981C86.8986 16.7981 86.4786 17.0076 86.1578 17.4281C85.8949 17.7624 85.7386 18.1633 85.6904 18.6302H88.9801V18.6309Z" fill="white"/>
</svg>