<svg xmlns="http://www.w3.org/2000/svg" width="100" height="29" viewBox="0 0 100 29" fill="none">
<path d="M96.2963 28.8889H3.7037C1.66759 28.8889 0 27.263 0 25.2778V3.61114C0 1.62593 1.66759 2.99658e-05 3.7037 2.99658e-05H96.2963C98.3324 2.99658e-05 100 1.62593 100 3.61114V25.2778C100 27.263 98.3324 28.8889 96.2963 28.8889Z" fill="#001011"/>
<path d="M96.2963 0.57871C98.0111 0.57871 99.4065 1.9392 99.4065 3.61114V25.2778C99.4065 26.9497 98.0111 28.3102 96.2963 28.3102H3.7037C1.98889 28.3102 0.593518 26.9497 0.593518 25.2778V3.61114C0.593518 1.9392 1.98889 0.57871 3.7037 0.57871H96.2963ZM96.2963 2.99658e-05H3.7037C1.66759 2.99658e-05 0 1.62593 0 3.61114V25.2778C0 27.263 1.66759 28.8889 3.7037 28.8889H96.2963C98.3324 28.8889 100 27.263 100 25.2778V3.61114C100 1.62593 98.3324 2.99658e-05 96.2963 2.99658e-05Z" fill="#001011"/>
<path d="M7.73024 5.44439C7.51264 5.66648 7.38672 6.01224 7.38672 6.46002V22.432C7.38672 22.8797 7.51264 23.2255 7.73024 23.4476L7.78394 23.4963L16.9636 14.5498V14.3386L7.78394 5.39203L7.73024 5.44439Z" fill="url(#paint0_linear_4210_31220)"/>
<path d="M20.0194 17.5334L16.9629 14.5498V14.3385L20.0231 11.3548L20.0916 11.3937L23.7157 13.4041C24.7499 13.9747 24.7499 14.9136 23.7157 15.4878L20.0916 17.4946L20.0194 17.5334Z" fill="url(#paint1_linear_4210_31220)"/>
<path d="M20.0915 17.4955L16.9628 14.445L7.72949 23.4484C8.07301 23.8005 8.6332 23.8429 9.27023 23.4908L20.0915 17.4955Z" fill="url(#paint2_linear_4210_31220)"/>
<path d="M20.0915 11.3951L9.27023 5.39973C8.6332 5.05125 8.07301 5.09368 7.72949 5.44577L16.9628 14.4456L20.0915 11.3951Z" fill="url(#paint3_linear_4210_31220)"/>
<path d="M35.1235 7.39944C35.1235 8.00249 34.9383 8.48548 34.5735 8.84569C34.154 9.2727 33.6077 9.48756 32.9383 9.48756C32.2985 9.48756 31.7522 9.26909 31.304 8.83846C30.8549 8.40152 30.6309 7.86527 30.6309 7.22339C30.6309 6.58152 30.8549 6.04527 31.304 5.61194C31.7522 5.1777 32.2985 4.95923 32.9383 4.95923C33.2568 4.95923 33.5605 5.02333 33.8503 5.14249C34.1392 5.26256 34.3744 5.42506 34.5447 5.62548L34.1577 6.00645C33.8605 5.6643 33.4559 5.49548 32.9383 5.49548C32.4716 5.49548 32.067 5.65437 31.7235 5.97485C31.3836 6.29624 31.2133 6.71242 31.2133 7.22339C31.2133 7.73437 31.3836 8.15416 31.7235 8.47555C32.067 8.79242 32.4716 8.95492 32.9383 8.95492C33.4336 8.95492 33.8503 8.79242 34.179 8.47194C34.3957 8.25978 34.5188 7.96728 34.5512 7.59353H32.9383V7.07173H35.0901C35.116 7.18458 35.1235 7.29381 35.1235 7.39944Z" fill="white" stroke="white" stroke-width="0.2" stroke-miterlimit="10"/>
<path d="M38.5379 5.58862H36.5166V6.96084H38.3388V7.48265H36.5166V8.85487H38.5379V9.38661H35.9443V5.05688H38.5379V5.58862Z" fill="white" stroke="white" stroke-width="0.2" stroke-miterlimit="10"/>
<path d="M40.9478 9.38661H40.3756V5.58862H39.1357V5.05688H42.1885V5.58862H40.9478V9.38661Z" fill="white" stroke="white" stroke-width="0.2" stroke-miterlimit="10"/>
<path d="M44.3965 9.38661V5.05688H44.9678V9.38661H44.3965Z" fill="white" stroke="white" stroke-width="0.2" stroke-miterlimit="10"/>
<path d="M47.5005 9.38661H46.9329V5.58862H45.6885V5.05688H48.745V5.58862H47.5005V9.38661Z" fill="white" stroke="white" stroke-width="0.2" stroke-miterlimit="10"/>
<path d="M54.5252 8.83124C54.0873 9.26909 53.5447 9.48756 52.8974 9.48756C52.2465 9.48756 51.7039 9.26909 51.266 8.83124C50.8289 8.3943 50.6113 7.85805 50.6113 7.22339C50.6113 6.58874 50.8289 6.05249 51.266 5.61555C51.7039 5.1777 52.2465 4.95923 52.8974 4.95923C53.541 4.95923 54.0836 5.1777 54.5215 5.61916C54.9623 6.05971 55.1798 6.59235 55.1798 7.22339C55.1798 7.85805 54.9623 8.3943 54.5252 8.83124ZM51.6891 8.46833C52.0187 8.79242 52.4197 8.95492 52.8974 8.95492C53.3715 8.95492 53.7761 8.79242 54.1021 8.46833C54.4308 8.14423 54.5974 7.72805 54.5974 7.22339C54.5974 6.71874 54.4308 6.30256 54.1021 5.97846C53.7761 5.65437 53.3715 5.49187 52.8974 5.49187C52.4197 5.49187 52.0187 5.65437 51.6891 5.97846C51.3604 6.30256 51.1937 6.71874 51.1937 7.22339C51.1937 7.72805 51.3604 8.14423 51.6891 8.46833Z" fill="white" stroke="white" stroke-width="0.2" stroke-miterlimit="10"/>
<path d="M55.9824 9.38661V5.05688H56.6769L58.8361 8.42425H58.8611L58.8361 7.59188V5.05688H59.4074V9.38661H58.8111L56.55 5.85313H56.525L56.55 6.68911V9.38661H55.9824Z" fill="white" stroke="white" stroke-width="0.2" stroke-miterlimit="10"/>
<path d="M50.4698 15.7104C48.73 15.7104 47.3087 17.0014 47.3087 18.7826C47.3087 20.5493 48.73 21.8538 50.4698 21.8538C52.2133 21.8538 53.6346 20.5493 53.6346 18.7826C53.6346 17.0014 52.2133 15.7104 50.4698 15.7104ZM50.4698 20.6441C49.5151 20.6441 48.6939 19.8758 48.6939 18.7826C48.6939 17.6749 49.5151 16.9202 50.4698 16.9202C51.4244 16.9202 52.2494 17.6749 52.2494 18.7826C52.2494 19.8758 51.4244 20.6441 50.4698 20.6441ZM43.5726 15.7104C41.829 15.7104 40.4114 17.0014 40.4114 18.7826C40.4114 20.5493 41.829 21.8538 43.5726 21.8538C45.3151 21.8538 46.7337 20.5493 46.7337 18.7826C46.7337 17.0014 45.3151 15.7104 43.5726 15.7104ZM43.5726 20.6441C42.617 20.6441 41.7929 19.8758 41.7929 18.7826C41.7929 17.6749 42.617 16.9202 43.5726 16.9202C44.5272 16.9202 45.3485 17.6749 45.3485 18.7826C45.3485 19.8758 44.5272 20.6441 43.5726 20.6441ZM35.3652 16.652V17.9574H38.5624C38.4689 18.6869 38.2189 19.2231 37.8355 19.5969C37.3689 20.0483 36.642 20.5493 35.3652 20.5493C33.3976 20.5493 31.8568 19.0011 31.8568 17.0827C31.8568 15.1643 33.3976 13.616 35.3652 13.616C36.429 13.616 37.2031 14.0213 37.7744 14.5468L38.7179 13.6268C37.9189 12.8829 36.8559 12.3115 35.3652 12.3115C32.667 12.3115 30.3994 14.452 30.3994 17.0827C30.3994 19.7133 32.667 21.8538 35.3652 21.8538C36.8235 21.8538 37.9189 21.388 38.78 20.5141C39.6624 19.6538 39.9374 18.444 39.9374 17.4672C39.9374 17.1639 39.9114 16.8849 39.8652 16.652H35.3652ZM68.9263 17.664C68.6661 16.977 67.8633 15.7104 66.2281 15.7104C64.6077 15.7104 63.2587 16.9554 63.2587 18.7826C63.2587 20.5033 64.5938 21.8538 66.3837 21.8538C67.8309 21.8538 68.6661 20.9935 69.0096 20.4924L67.9355 19.7946C67.5772 20.3056 67.0892 20.6441 66.3837 20.6441C65.6827 20.6441 65.18 20.3308 64.8577 19.7133L69.0716 18.0134L68.9263 17.664ZM64.63 18.6869C64.5938 17.5024 65.5735 16.8958 66.2753 16.8958C66.8253 16.8958 67.292 17.1639 67.4476 17.5476L64.63 18.6869ZM61.205 21.667H62.5901V12.6392H61.205V21.667ZM58.9364 16.3947H58.8901C58.579 16.0354 57.9855 15.7104 57.2337 15.7104C55.6559 15.7104 54.2133 17.061 54.2133 18.7925C54.2133 20.5141 55.6559 21.8538 57.2337 21.8538C57.9855 21.8538 58.579 21.5261 58.8901 21.156H58.9364V21.5965C58.9364 22.7711 58.2929 23.4021 57.255 23.4021C56.4087 23.4021 55.8837 22.8063 55.667 22.3052L54.4624 22.7954C54.8096 23.6097 55.729 24.6118 57.255 24.6118C58.879 24.6118 60.2494 23.6801 60.2494 21.4133V15.8973H58.9364V16.3947ZM57.3522 20.6441C56.3976 20.6441 55.5985 19.865 55.5985 18.7925C55.5985 17.7101 56.3976 16.9202 57.3522 16.9202C58.2929 16.9202 59.0346 17.7101 59.0346 18.7925C59.0346 19.865 58.2929 20.6441 57.3522 20.6441ZM75.4114 12.6392H72.0985V21.667H73.48V18.2463H75.4114C76.9457 18.2463 78.4503 17.1639 78.4503 15.4423C78.4503 13.7216 76.942 12.6392 75.4114 12.6392ZM75.4475 16.9906H73.48V13.8949H75.4475C76.479 13.8949 77.0679 14.73 77.0679 15.4423C77.0679 16.1411 76.479 16.9906 75.4475 16.9906ZM83.9874 15.6933C82.9892 15.6933 81.9512 16.123 81.5244 17.0754L82.7503 17.5765C83.0142 17.0754 83.4994 16.9129 84.0124 16.9129C84.729 16.9129 85.4559 17.3327 85.467 18.0739V18.1687C85.217 18.0279 84.6818 17.8193 84.0235 17.8193C82.7031 17.8193 81.3577 18.528 81.3577 19.8506C81.3577 21.0603 82.4392 21.8394 83.655 21.8394C84.5846 21.8394 85.0975 21.4304 85.4198 20.9547H85.467V21.6525H86.8012V18.1895C86.8012 16.5888 85.5753 15.6933 83.9874 15.6933ZM83.8207 20.6405C83.3688 20.6405 82.7392 20.422 82.7392 19.8758C82.7392 19.1771 83.5244 18.909 84.204 18.909C84.8124 18.909 85.0975 19.0399 85.467 19.2123C85.3587 20.0483 84.6207 20.6405 83.8207 20.6405ZM91.6624 15.891L90.0744 19.8045H90.0272L88.3855 15.891H86.8957L89.3624 21.36L87.9549 24.4033H89.3985L93.1994 15.891H91.6624ZM79.2096 21.667H80.5948V12.6392H79.2096V21.667Z" fill="white"/>
<defs>
<linearGradient id="paint0_linear_4210_31220" x1="16.1485" y1="22.5983" x2="4.03179" y2="10.1709" gradientUnits="userSpaceOnUse">
<stop stop-color="#00A0FF"/>
<stop offset="0.0066" stop-color="#00A1FF"/>
<stop offset="0.2601" stop-color="#00BEFF"/>
<stop offset="0.5122" stop-color="#00D2FF"/>
<stop offset="0.7604" stop-color="#00DFFF"/>
<stop offset="1" stop-color="#00E3FF"/>
</linearGradient>
<linearGradient id="paint1_linear_4210_31220" x1="25.0624" y1="14.4431" x2="7.13882" y2="14.4431" gradientUnits="userSpaceOnUse">
<stop stop-color="#FFE000"/>
<stop offset="0.4087" stop-color="#FFBD00"/>
<stop offset="0.7754" stop-color="#FFA500"/>
<stop offset="1" stop-color="#FF9C00"/>
</linearGradient>
<linearGradient id="paint2_linear_4210_31220" x1="18.3902" y1="12.7867" x2="1.95895" y2="-4.06591" gradientUnits="userSpaceOnUse">
<stop stop-color="#FF3A44"/>
<stop offset="1" stop-color="#C31162"/>
</linearGradient>
<linearGradient id="paint3_linear_4210_31220" x1="5.40527" y1="28.7627" x2="12.7426" y2="21.2374" gradientUnits="userSpaceOnUse">
<stop stop-color="#32A071"/>
<stop offset="0.0685" stop-color="#2DA771"/>
<stop offset="0.4762" stop-color="#15CF74"/>
<stop offset="0.8009" stop-color="#06E775"/>
<stop offset="1" stop-color="#00F076"/>
</linearGradient>
</defs>
</svg>